# Blender v2.90.0 OBJ File: ''
# www.blender.org
mtllib hedge.mtl
o Hedge_1_Cube.003
v -2.881574 0.000000 -1.613129
v -1.613129 0.000000 -2.881575
v -1.613129 -0.000000 2.881574
v -2.881574 -0.000000 1.613128
v -3.174385 7.419106 -1.880703
v -1.621465 8.644723 -1.621465
v -1.880703 7.419106 -3.174384
v -1.880703 7.419106 3.174385
v -1.621465 8.644723 1.621466
v -3.174385 7.419106 1.880703
v 1.613129 0.000000 -2.881575
v 2.881574 0.000000 -1.613129
v 2.881574 -0.000000 1.613128
v 1.613129 -0.000000 2.881574
v 1.880703 7.419106 -3.174385
v 1.621465 8.644723 -1.621465
v 3.174385 7.419106 -1.880703
v 1.880703 7.419106 3.174385
v 3.174385 7.419106 1.880703
v 1.621465 8.644723 1.621466
v -3.277197 6.988766 -1.983515
v -1.983515 6.988766 -3.277197
v -2.146820 4.512454 -3.416272
v -3.416272 4.512454 -2.146820
v -3.070620 1.629857 -1.802175
v -3.369540 4.132271 -2.100088
v -2.100088 4.132271 -3.369540
v -1.802174 1.629858 -3.070620
v -3.070620 1.629857 1.802174
v -1.802174 1.629857 3.070619
v -2.100088 4.132270 3.369540
v -3.369540 4.132270 2.100088
v -3.277197 6.988765 1.983515
v -3.416272 4.512453 2.146820
v -2.146820 4.512452 3.416272
v -1.983515 6.988765 3.277197
v 3.070620 1.629857 -1.802174
v 1.802174 1.629858 -3.070620
v 2.100088 4.132271 -3.369540
v 3.369540 4.132271 -2.100087
v 3.277197 6.988766 -1.983515
v 3.416272 4.512454 -2.146820
v 2.146820 4.512454 -3.416272
v 1.983515 6.988766 -3.277197
v 3.277197 6.988765 1.983516
v 1.983515 6.988765 3.277197
v 2.146820 4.512452 3.416272
v 3.416272 4.512453 2.146820
v 3.070620 1.629857 1.802174
v 3.369540 4.132270 2.100088
v 2.100088 4.132270 3.369540
v 1.802174 1.629857 3.070619
vt 0.245946 0.770904
vt 0.224847 0.757817
vt 0.228010 0.756475
vt 0.252063 0.725190
vt 0.273162 0.738276
vt 0.269999 0.739619
vt 0.226241 0.744928
vt 0.239207 0.724320
vt 0.240559 0.727382
vt 0.115188 0.733546
vt 0.139972 0.525486
vt 0.191391 0.624871
vt 0.475575 0.784056
vt 0.306618 0.871223
vt 0.382821 0.762547
vt 0.250131 0.759869
vt 0.247877 0.736225
vt 0.261031 0.746898
vt 0.194506 0.744264
vt 0.225283 0.692513
vt 0.228550 0.698012
vt 0.258802 0.771773
vt 0.271768 0.751166
vt 0.274984 0.751652
vt 0.244820 0.801467
vt 0.194839 0.771942
vt 0.199984 0.768596
vt 0.309358 0.753216
vt 0.269459 0.798082
vt 0.303502 0.751830
vt 0.234246 0.884660
vt 0.022434 0.856934
vt 0.123226 0.806755
vt 0.298025 0.727497
vt 0.254746 0.689057
vt 0.303170 0.724152
vt 0.257449 0.768712
vt 0.236978 0.749196
vt 0.374783 0.689339
vt 0.272726 0.803581
vt 0.245524 0.774207
vt 0.263762 0.611433
vt 0.252485 0.721887
vt 0.223025 0.744442
vt 0.188651 0.742878
vt 0.475575 0.639160
vt 0.358037 0.970608
vt 0.214263 0.977767
vt 0.243263 0.807037
vt 0.283746 0.518326
vt 0.253188 0.694627
vt 0.022434 0.712038
vn 0.0000 0.2324 0.9726
vn 0.0000 0.2324 -0.9726
vn 0.9726 0.2324 0.0000
vn 0.9933 -0.1152 -0.0000
vn -0.9933 -0.1152 -0.0000
vn 0.0000 1.0000 0.0000
vn 0.9925 -0.1220 0.0000
vn -0.9726 0.2324 0.0000
vn 0.0000 -0.1220 0.9925
vn -0.9925 -0.1220 0.0000
vn 0.0000 -0.1152 0.9933
vn 0.0000 -0.1220 -0.9925
vn -0.4888 0.7227 -0.4888
vn -0.4888 0.7227 0.4888
vn 0.4888 0.7227 -0.4888
vn 0.4888 0.7227 0.4888
vn -0.7045 0.0860 -0.7045
vn -0.6973 -0.1663 -0.6973
vn -0.6973 -0.1663 0.6973
vn -0.7045 0.0860 0.7045
vn 0.6973 -0.1663 -0.6973
vn 0.7045 0.0860 -0.7045
vn 0.7045 0.0860 0.7045
vn 0.6973 -0.1663 0.6973
vn -0.6978 -0.1619 -0.6978
vn -0.6699 0.3201 0.6699
vn -0.6195 0.7850 0.0000
vn -0.0000 0.7850 -0.6195
vn 0.0000 0.7850 0.6195
vn 0.6195 0.7850 0.0000
vn 0.6699 0.3201 -0.6699
vn 0.6978 -0.1619 0.6978
vn -0.6699 0.3201 -0.6699
vn -0.6967 -0.1713 -0.6967
vn -0.6978 -0.1619 0.6978
vn -0.6967 -0.1713 0.6967
vn 0.6978 -0.1619 -0.6978
vn 0.6967 -0.1713 -0.6967
vn 0.6699 0.3201 0.6699
vn 0.6967 -0.1713 0.6967
vn 0.0000 0.0561 0.9984
vn -0.0000 -0.1186 0.9929
vn 0.0000 0.0561 -0.9984
vn 0.0000 -0.1186 -0.9929
vn 0.9984 0.0561 0.0000
vn 0.9929 -0.1186 0.0000
vn -0.9929 -0.1186 0.0000
vn -0.9984 0.0561 0.0000
vn 0.0000 -0.1152 -0.9933
usemtl Material.001
s off
f 8/1/1 46/2/1 18/3/1
f 15/4/2 22/5/2 7/6/2
f 19/7/3 41/8/3 17/9/3
f 49/10/4 12/11/4 37/12/4
f 1/13/5 29/14/5 25/15/5
f 9/16/6 16/17/6 6/18/6
f 48/19/7 40/20/7 42/21/7
f 33/22/8 5/23/8 21/24/8
f 35/25/9 51/26/9 47/27/9
f 26/28/10 34/29/10 24/30/10
f 30/31/11 14/32/11 52/33/11
f 23/34/12 39/35/12 27/36/12
f 5/23/13 6/18/13 7/6/13
f 8/1/14 9/16/14 10/37/14
f 15/4/15 16/17/15 17/9/15
f 18/3/16 19/7/16 20/38/16
f 22/5/17 24/30/17 21/24/17
f 26/28/18 28/39/18 25/15/18
f 30/31/19 32/40/19 29/14/19
f 34/29/20 36/41/20 33/22/20
f 38/42/21 40/20/21 37/12/21
f 42/21/22 44/43/22 41/8/22
f 45/44/23 47/27/23 48/19/23
f 50/45/24 52/33/24 49/10/24
f 2/46/25 25/15/25 28/39/25
f 8/1/26 33/22/26 36/41/26
f 6/18/27 10/37/27 9/16/27
f 7/6/28 16/17/28 15/4/28
f 18/3/29 9/16/29 8/1/29
f 19/7/30 16/17/30 20/38/30
f 15/4/31 41/8/31 44/43/31
f 14/32/32 49/10/32 52/33/32
f 7/6/33 21/24/33 5/23/33
f 27/36/34 24/30/34 23/34/34
f 30/31/35 4/47/35 3/48/35
f 35/25/36 32/40/36 31/49/36
f 38/42/37 12/11/37 11/50/37
f 39/35/38 42/21/38 40/20/38
f 46/2/39 19/7/39 18/3/39
f 51/26/40 48/19/40 47/27/40
f 47/27/41 36/41/41 35/25/41
f 52/33/42 31/49/42 30/31/42
f 23/34/43 44/43/43 43/51/43
f 28/39/44 39/35/44 38/42/44
f 42/21/45 45/44/45 48/19/45
f 37/12/46 50/45/46 49/10/46
f 32/40/47 25/15/47 29/14/47
f 33/22/48 24/30/48 34/29/48
f 38/42/49 2/46/49 28/39/49
f 8/1/1 36/41/1 46/2/1
f 15/4/2 44/43/2 22/5/2
f 19/7/3 45/44/3 41/8/3
f 49/10/4 13/52/4 12/11/4
f 1/13/5 4/47/5 29/14/5
f 9/16/6 20/38/6 16/17/6
f 48/19/7 50/45/7 40/20/7
f 33/22/8 10/37/8 5/23/8
f 35/25/9 31/49/9 51/26/9
f 26/28/10 32/40/10 34/29/10
f 30/31/11 3/48/11 14/32/11
f 23/34/12 43/51/12 39/35/12
f 22/5/17 23/34/17 24/30/17
f 26/28/18 27/36/18 28/39/18
f 30/31/19 31/49/19 32/40/19
f 34/29/20 35/25/20 36/41/20
f 38/42/21 39/35/21 40/20/21
f 42/21/22 43/51/22 44/43/22
f 45/44/23 46/2/23 47/27/23
f 50/45/24 51/26/24 52/33/24
f 2/46/25 1/13/25 25/15/25
f 8/1/26 10/37/26 33/22/26
f 6/18/27 5/23/27 10/37/27
f 7/6/28 6/18/28 16/17/28
f 18/3/29 20/38/29 9/16/29
f 19/7/30 17/9/30 16/17/30
f 15/4/31 17/9/31 41/8/31
f 14/32/32 13/52/32 49/10/32
f 7/6/33 22/5/33 21/24/33
f 27/36/34 26/28/34 24/30/34
f 30/31/35 29/14/35 4/47/35
f 35/25/36 34/29/36 32/40/36
f 38/42/37 37/12/37 12/11/37
f 39/35/38 43/51/38 42/21/38
f 46/2/39 45/44/39 19/7/39
f 51/26/40 50/45/40 48/19/40
f 47/27/41 46/2/41 36/41/41
f 52/33/42 51/26/42 31/49/42
f 23/34/43 22/5/43 44/43/43
f 28/39/44 27/36/44 39/35/44
f 42/21/45 41/8/45 45/44/45
f 37/12/46 40/20/46 50/45/46
f 32/40/47 26/28/47 25/15/47
f 33/22/48 21/24/48 24/30/48
f 38/42/49 11/50/49 2/46/49
