# Blender v2.90.0 OBJ File: ''
# www.blender.org
mtllib mountain.mtl
o Mountain_2_Cone.001
v -0.000000 0.000001 -10.839715
v -3.000000 17.200001 0.000001
v 3.000000 15.553365 0.000001
v -6.371425 -0.000001 8.769511
v -10.309180 0.000000 -3.349658
v 6.371425 -0.000001 8.769511
v -6.412277 5.214307 6.072977
v 10.309180 0.000000 -3.349658
v -2.000000 5.214309 -7.506613
v -9.139213 5.214309 -2.319672
v -2.196326 14.465420 1.106162
v -3.803674 14.465420 1.106162
v -1.699629 14.465420 -0.422515
v -3.000000 14.465420 -1.367290
v -4.300371 14.465420 -0.422515
v -1.793549 12.475626 1.660537
v -0.865324 9.741760 2.938130
v -4.206450 12.475626 1.660537
v -5.134676 9.741760 2.938130
v 6.412277 5.214307 6.072977
v -1.047922 12.475626 -0.634268
v -3.000000 9.741760 -3.631727
v -3.000000 12.475626 -2.052536
v -4.952078 12.475626 -0.634268
v -6.453978 9.741760 -1.122266
v -3.000000 12.475626 1.660537
v 0.000000 -0.000001 8.769512
v 0.000000 5.214307 6.072977
v -0.000000 5.214309 -6.053528
v -0.000000 9.741760 0.274937
v -0.000000 10.568125 -0.974759
v -0.000000 9.741760 -1.452100
v -0.000000 8.546461 3.765766
v 2.000000 5.214309 -7.506613
v 9.139213 5.214309 -2.319672
v 2.196326 14.465420 1.106162
v 3.803674 14.465420 1.106162
v 1.699629 14.465420 -0.422515
v 3.000000 14.465420 -1.367290
v 4.300371 14.465420 -0.422515
v 1.793549 12.475626 1.660537
v 0.865324 9.741760 2.938130
v 4.206450 12.475626 1.660537
v 5.134676 9.741760 2.938130
v 1.047922 12.475626 -0.634268
v 3.000000 9.741760 -3.631727
v 3.000000 12.475626 -2.052536
v 4.952078 12.475626 -0.634268
v 6.453978 9.741760 -1.122266
v 3.000000 12.475626 1.660537
vt 0.732040 0.228957
vt 0.743174 0.233384
vt 0.728419 0.237371
vt 0.400369 0.460685
vt 0.411871 0.464088
vt 0.390809 0.472517
vt 0.686929 0.474624
vt 0.692974 0.339894
vt 0.731132 0.339751
vt 0.797570 0.135497
vt 0.683214 0.004510
vt 0.832974 0.026461
vt 0.779290 0.191616
vt 0.765811 0.233698
vt 0.761605 0.203514
vt 0.699396 0.125266
vt 0.519220 0.230516
vt 0.406415 0.442597
vt 0.413584 0.452215
vt 0.405567 0.454250
vt 0.394624 0.450154
vt 0.967400 0.096617
vt 0.796144 0.250046
vt 0.793883 0.259049
vt 0.784316 0.246708
vt 0.428328 0.448471
vt 0.638841 0.225546
vt 0.720315 0.190798
vt 0.699017 0.225312
vt 0.716369 0.262041
vt 0.756788 0.261407
vt 0.967400 0.377106
vt 0.761788 0.362480
vt 0.873231 0.302298
vt 0.742640 0.219148
vt 0.736817 0.216859
vt 0.721702 0.224796
vt 0.759436 0.253256
vt 0.735836 0.224231
vt 0.732484 0.222909
vt 0.730967 0.214330
vt 0.390809 0.431223
vt 0.786670 0.211707
vt 0.446831 0.441223
vt 0.447897 0.450959
vt 0.440765 0.449309
vt 0.883143 0.184972
vt 0.452448 0.456694
vt 0.460372 0.466682
vt 0.442664 0.459238
vt 0.457150 0.447745
vt 0.428343 0.446436
vt 0.827452 0.225683
vt 0.788957 0.286027
vt 0.800085 0.237776
vt 0.794018 0.235140
vt 0.806849 0.253138
vt 0.824704 0.266776
vt 0.796036 0.243950
vt 0.805754 0.240016
vt 0.799523 0.245088
vt 0.460372 0.431223
vn 0.5662 0.2684 -0.7793
vn -0.5662 0.2684 -0.7793
vn 0.4719 0.5962 -0.6495
vn 0.0000 0.4594 0.8883
vn 0.7060 0.6700 0.2294
vn -0.9402 0.1506 0.3055
vn -0.5643 0.2800 -0.7767
vn 0.8817 0.3750 0.2865
vn 0.0000 0.3750 0.9270
vn -0.8817 0.3750 0.2865
vn 0.5449 0.3750 -0.7500
vn -0.5449 0.3750 -0.7500
vn 0.9162 0.2684 0.2977
vn -0.8566 0.4344 0.2783
vn 0.4540 0.6351 -0.6249
vn -0.5123 0.4903 -0.7051
vn -0.9162 0.2684 0.2977
vn 0.5643 0.2800 -0.7767
vn 0.0000 0.4234 0.9060
vn -0.8616 0.4234 0.2800
vn 0.5325 0.4234 -0.7329
vn -0.5325 0.4234 -0.7329
vn 0.0000 0.2684 0.9633
vn -0.7060 0.6700 0.2294
vn -0.6669 0.7130 0.2167
vn 0.8616 0.4234 0.2800
vn 0.9402 0.1506 0.3055
vn -0.0000 0.5693 0.8222
vn -0.4719 0.5962 -0.6495
vn 0.0000 0.7130 0.7012
vn 0.6669 0.7130 0.2167
vn -0.4122 0.7130 -0.5673
vn 0.4122 0.7130 -0.5673
vn 0.8566 0.4344 0.2783
vn -0.4540 0.6351 -0.6249
vn 0.5123 0.4903 -0.7051
usemtl Material.001
s off
f 14/1/1 21/2/1 23/3/1
f 15/4/2 14/5/2 24/6/2
f 1/7/3 9/8/3 29/9/3
f 28/10/4 4/11/4 27/12/4
f 33/13/5 30/14/5 17/15/5
f 7/16/6 5/17/6 4/11/6
f 5/17/7 9/8/7 1/7/7
f 11/18/8 13/19/8 2/20/8
f 12/21/9 11/18/9 2/20/9
f 15/4/10 12/21/10 2/20/10
f 13/19/11 14/5/11 2/20/11
f 14/5/12 15/4/12 2/20/12
f 6/22/4 28/10/4 27/12/4
f 39/23/2 47/24/2 45/25/2
f 13/19/13 11/18/13 21/26/13
f 10/27/14 19/28/14 25/29/14
f 29/9/15 22/30/15 32/31/15
f 10/27/16 22/30/16 9/8/16
f 12/21/17 15/4/17 24/6/17
f 8/32/18 34/33/18 35/34/18
f 17/15/19 16/35/19 26/36/19
f 19/28/20 24/37/20 25/29/20
f 23/3/21 21/2/21 31/38/21
f 25/29/22 23/3/22 22/30/22
f 11/39/23 26/36/23 16/35/23
f 26/36/23 12/40/23 18/41/23
f 12/21/23 26/42/23 11/18/23
f 24/37/17 18/41/17 12/40/17
f 21/2/13 11/39/13 16/35/13
f 21/26/1 14/5/1 13/19/1
f 24/37/2 14/1/2 23/3/2
f 33/13/24 42/43/24 30/14/24
f 36/44/25 3/45/25 38/46/25
f 30/14/26 21/2/26 16/35/26
f 8/32/27 20/47/27 6/22/27
f 33/13/28 17/15/28 19/28/28
f 40/48/1 48/49/1 39/50/1
f 1/7/29 29/9/29 34/33/29
f 37/51/30 3/45/30 36/44/30
f 40/48/31 3/45/31 37/51/31
f 38/46/32 3/45/32 39/50/32
f 39/50/33 3/45/33 40/48/33
f 38/46/17 45/52/17 36/44/17
f 35/34/34 44/53/34 20/47/34
f 29/9/35 46/54/35 34/33/35
f 46/54/36 35/34/36 34/33/36
f 37/51/13 48/49/13 40/48/13
f 50/55/19 41/56/19 42/43/19
f 48/57/26 44/53/26 49/58/26
f 31/38/22 47/24/22 46/54/22
f 47/24/21 49/58/21 46/54/21
f 36/59/23 41/56/23 50/55/23
f 50/55/23 43/60/23 37/61/23
f 37/51/23 36/44/23 50/62/23
f 48/57/13 37/61/13 43/60/13
f 45/25/17 41/56/17 36/59/17
f 45/52/2 38/46/2 39/50/2
f 48/57/1 47/24/1 39/23/1
f 45/25/20 31/38/20 30/14/20
f 44/53/28 42/43/28 33/13/28
f 28/10/4 7/16/4 4/11/4
f 7/16/6 10/27/6 5/17/6
f 5/17/7 10/27/7 9/8/7
f 6/22/4 20/47/4 28/10/4
f 10/27/14 7/16/14 19/28/14
f 29/9/15 9/8/15 22/30/15
f 10/27/16 25/29/16 22/30/16
f 8/32/18 1/7/18 34/33/18
f 18/41/19 19/28/19 26/36/19
f 19/28/19 17/15/19 26/36/19
f 19/28/20 18/41/20 24/37/20
f 31/38/21 32/31/21 22/30/21
f 22/30/21 23/3/21 31/38/21
f 25/29/22 24/37/22 23/3/22
f 16/35/26 17/15/26 30/14/26
f 30/14/26 31/38/26 21/2/26
f 8/32/27 35/34/27 20/47/27
f 19/28/28 7/16/28 33/13/28
f 7/16/28 28/10/28 33/13/28
f 35/34/34 49/58/34 44/53/34
f 29/9/35 32/31/35 46/54/35
f 46/54/36 49/58/36 35/34/36
f 42/43/19 44/53/19 50/55/19
f 44/53/19 43/60/19 50/55/19
f 48/57/26 43/60/26 44/53/26
f 46/54/22 32/31/22 31/38/22
f 31/38/22 45/25/22 47/24/22
f 47/24/21 48/57/21 49/58/21
f 30/14/20 42/43/20 41/56/20
f 41/56/20 45/25/20 30/14/20
f 28/10/28 20/47/28 33/13/28
f 20/47/28 44/53/28 33/13/28
