# Blender v2.90.0 OBJ File: ''
# www.blender.org
mtllib rock.mtl
o Rock_1_Icosphere.002
v 0.112993 2.026254 -6.900000
v 5.105833 -0.063773 -3.085784
v -1.794063 -1.355509 -3.085784
v -6.957974 3.291222 -2.295350
v -4.972936 5.991501 -2.295349
v 5.553092 5.092117 -3.085783
v 2.020050 -1.355510 3.085783
v -3.782030 -0.185754 3.085783
v -5.924685 4.829399 1.504917
v 2.467309 6.383852 3.085784
v 6.731784 3.002090 3.085784
v 1.210810 1.904272 6.900000
vt 0.525012 0.022749
vt 0.980352 0.022749
vt 0.980352 0.478088
vt 0.525012 0.022749
vt 0.980352 0.022749
vt 0.980352 0.478088
vt 0.980352 0.022749
vt 0.980352 0.478088
vt 0.980352 0.022749
vt 0.980352 0.478088
vt 0.980352 0.022749
vt 0.980352 0.022749
vt 0.980352 0.478088
vt 0.525012 0.022749
vt 0.980352 0.478088
vt 0.525012 0.022749
vt 0.980352 0.478088
vt 0.525012 0.022749
vt 0.980352 0.478088
vt 0.525012 0.022749
vt 0.980352 0.478088
vt 0.980352 0.022749
vt 0.980352 0.022749
vt 0.980352 0.022749
vt 0.980352 0.022749
vt 0.980352 0.022749
vt 0.525012 0.022749
vt 0.980352 0.478088
vt 0.525012 0.022749
vt 0.525012 0.022749
vt 0.525012 0.022749
vt 0.525012 0.022749
vn 0.1451 -0.7752 -0.6148
vn 0.5926 -0.0514 -0.8039
vn -0.5375 -0.4793 -0.6938
vn -0.4683 0.3443 -0.8137
vn 0.0174 0.7671 -0.6413
vn 0.9731 -0.0844 -0.2144
vn 0.1828 -0.9766 -0.1130
vn -0.6734 -0.7352 -0.0776
vn -0.8055 0.5922 -0.0207
vn 0.0712 0.9828 -0.1701
vn 0.6676 -0.7218 0.1827
vn -0.1962 -0.9730 0.1212
vn -0.8954 -0.2712 0.3532
vn -0.2196 0.9470 0.2346
vn 0.6148 0.7752 0.1451
vn 0.5376 -0.5813 0.6108
vn -0.1546 -0.7670 0.6227
vn -0.6051 -0.0075 0.7961
vn -0.2554 0.6673 0.6996
vn 0.4128 0.5206 0.7474
usemtl Material.001
s off
f 1/1/1 2/2/1 3/3/1
f 2/4/2 1/5/2 6/6/2
f 1/1/3 3/7/3 4/8/3
f 1/1/4 4/9/4 5/10/4
f 1/1/5 5/11/5 6/6/5
f 2/4/6 6/12/6 11/13/6
f 3/14/7 2/2/7 7/15/7
f 4/16/8 3/7/8 8/17/8
f 5/18/9 4/9/9 9/19/9
f 6/20/10 5/11/10 10/21/10
f 2/4/11 11/22/11 7/15/11
f 3/14/12 7/23/12 8/17/12
f 4/16/13 8/24/13 9/19/13
f 5/18/14 9/25/14 10/21/14
f 6/20/15 10/26/15 11/13/15
f 7/27/16 11/22/16 12/28/16
f 8/29/17 7/23/17 12/28/17
f 9/30/18 8/24/18 12/28/18
f 10/31/19 9/25/19 12/28/19
f 11/32/20 10/26/20 12/28/20
