# Created by Kenney (www.kenney.nl)

mtllib flag.mtl

g flagpole

v 0.1005501 0.5897169 -0.02040452
v 0.1154288 0.5897169 -0.01953912
v 0.1005501 0.87 -0.02040452
v 0.1154288 0.87 -0.01953912
v 0.1588342 0.5897169 -0.006702006
v 0.1724912 0.5897169 0.0008721054
v 0.1588342 0.87 -0.006702006
v 0.1724912 0.87 0.0008721054
v 0.3288343 0.5897169 0.0267019
v 0.3424911 0.5897169 0.01912791
v 0.3288343 0.87 0.0267019
v 0.3424911 0.87 0.01912791
v 0.3555501 0.5897169 0.01000002
v 0.3555501 0.87 0.01000002
v 0.2854288 0.5897169 0.0395391
v 0.3001839 0.5897169 0.0369502
v 0.2854288 0.87 0.0395391
v 0.3001839 0.87 0.0369502
v 0.02586496 0.87 0.002789915
v 0.02860868 0.6086886 0.0008721054
v 0.02860868 0.87 0.0008721054
v 0.2409161 0.5897169 0.0369502
v 0.255671 0.5897169 0.0395391
v 0.2409161 0.87 0.0369502
v 0.255671 0.87 0.0395391
v 0.07091606 0.5897169 -0.01695019
v 0.08567119 0.5897169 -0.01953912
v 0.07091606 0.87 -0.01695019
v 0.08567119 0.87 -0.01953912
v 0.1301839 0.5897169 -0.01695019
v 0.1301839 0.87 -0.01695019
v 0.2122657 0.5897169 0.02670202
v 0.2264074 0.5897169 0.0326592
v 0.2122657 0.87 0.02670202
v 0.2264074 0.87 0.0326592
v 0.27055 0.5897169 0.0404045
v 0.27055 0.87 0.0404045
v 0.3146926 0.5897169 0.0326592
v 0.3146926 0.87 0.0326592
v 0.028808 0.5897169 0.0007615983
v 0.04226565 0.5897169 -0.006702006
v 0.04226565 0.87 -0.006702006
v 0.1986088 0.5897169 0.01912791
v 0.1986088 0.87 0.01912791
v 0.05640733 0.5897169 -0.01265931
v 0.05640733 0.87 -0.01265931
v 0.1446927 0.5897169 -0.01265931
v 0.1446927 0.87 -0.01265931
v 0.02555001 0.9 -0.02555001
v 0.02555001 0.9 0.02555001
v -0.02555001 0.9 -0.02555001
v -0.02555001 0.9 0.02555001
v 0.03499997 0 -0.03500003
v 0.03499997 0 0.035
v -0.03499997 0 -0.03500003
v -0.03500003 0 0.035

vn 0 0 -1
vn 0.1156347 0 -0.9932919
vn 0 0 1
vn -0.1156347 0 0.9932919
vn 0.4372437 0 -0.8993431
vn 0.5296637 0 -0.8482077
vn -0.4372437 0 0.8993431
vn -0.5296637 0 0.8482077
vn -0.4372414 0 -0.8993442
vn -0.5296627 0 -0.8482084
vn 0.4372414 0 0.8993442
vn 0.5296627 0 0.8482084
vn -0.5729036 0 -0.8196228
vn 0.5729036 0 0.8196228
vn -0.1156346 0 -0.9932919
vn -0.2285842 0 -0.9735241
vn 0.1156346 0 0.9932919
vn 0.2285842 0 0.9735241
vn -0.5729028 0 -0.8196232
vn -0.48537 0 -0.8743089
vn -0.5296635 0 -0.8482079
vn 0.5296635 0 0.8482079
vn 0.48537 0 0.8743089
vn 0.5729028 0 0.8196232
vn 0.2285849 0 -0.973524
vn 0.1156351 0 -0.9932917
vn -0.2285849 0 0.973524
vn -0.1156351 0 0.9932917
vn -0.2285803 0 -0.973525
vn 0.2285803 0 0.973525
vn 0.2285812 0 -0.9735249
vn -0.2285812 0 0.9735249
vn 0.4372412 0 -0.8993442
vn 0.3364302 0 -0.9417083
vn -0.4372412 0 0.8993442
vn -0.3364302 0 0.9417083
vn -0.336433 0 -0.9417074
vn 0.336433 0 0.9417074
vn -0.4850011 0 -0.8745136
vn -0.4372439 0 -0.899343
vn 0.4372439 0 0.899343
vn 0.4850011 0 0.8745136
vn 0.5296651 0 -0.8482069
vn -0.5296651 0 0.8482069
vn -0.3364303 0 -0.9417083
vn 0.3364303 0 0.9417083
vn 0.3364312 0 -0.941708
vn -0.3364312 0 0.941708
vn 0 1 0
vn 0.9999449 0.01049942 0
vn -0.9999449 0.01049942 0
vn 0 0.01049942 -0.9999449
vn 0 0.01049942 0.9999449
vn 0 -1 0

vt -3.905337 23.2172
vt -4.492106 23.2172
vt -3.905337 34.25197
vt -4.492106 34.25197
vt -5.340639 23.2172
vt -5.955468 23.2172
vt -5.340639 34.25197
vt -5.955468 34.25197
vt -10.81182 23.2172
vt -11.42664 23.2172
vt -10.81182 34.25197
vt -11.42664 34.25197
vt -10.62028 23.2172
vt -11.24755 23.2172
vt -10.62028 34.25197
vt -11.24755 34.25197
vt -10.79926 23.2172
vt -11.38904 23.2172
vt -10.79926 34.25197
vt -11.38904 34.25197
vt -0.7717014 34.25197
vt -0.9034933 23.96412
vt -0.9034933 34.25197
vt -9.593577 23.2172
vt -10.18336 23.2172
vt -9.593577 34.25197
vt -10.18336 34.25197
vt -2.865291 23.2172
vt -3.455074 23.2172
vt -2.865291 34.25197
vt -3.455074 34.25197
vt -4.343123 23.2172
vt -4.932907 23.2172
vt -4.343123 34.25197
vt -4.932907 34.25197
vt -8.109597 23.2172
vt -8.713739 23.2172
vt -8.109597 34.25197
vt -8.713739 34.25197
vt -10.54124 23.2172
vt -11.12801 23.2172
vt -10.54124 34.25197
vt -11.12801 34.25197
vt -10.92043 23.2172
vt -11.51609 23.2172
vt -10.92043 34.25197
vt -11.51609 34.25197
vt -3.411858 23.2172
vt -3.998628 23.2172
vt -3.411858 34.25197
vt -3.998628 34.25197
vt -0.9773075 23.2172
vt -1.583166 23.2172
vt -0.9683357 23.96412
vt -1.583166 34.25197
vt -0.9683357 34.25197
vt -7.203265 23.2172
vt -7.818091 23.2172
vt -7.203265 34.25197
vt -7.818091 34.25197
vt -10.91857 23.2172
vt -11.52271 23.2172
vt -10.91857 34.25197
vt -11.52271 34.25197
vt -1.635926 23.2172
vt -2.240067 23.2172
vt -1.635926 34.25197
vt -2.240067 34.25197
vt -5.056272 23.2172
vt -5.660412 23.2172
vt -5.056272 34.25197
vt -5.660412 34.25197
vt -8.912344 23.2172
vt -9.508011 23.2172
vt -8.912344 34.25197
vt -9.508011 34.25197
vt -5.585722 23.2172
vt -6.840265 23.2172
vt -5.585722 34.25197
vt -6.840265 34.25197
vt -2.270927 23.2172
vt -2.866596 23.2172
vt -2.270927 34.25197
vt -2.866596 34.25197
vt -4.725654 23.2172
vt -5.32132 23.2172
vt -4.725654 34.25197
vt -5.32132 34.25197
vt -10.1392 23.2172
vt -10.72597 23.2172
vt -10.1392 34.25197
vt -10.72597 34.25197
vt -1.005906 -1.005906
vt -1.005906 1.005906
vt 1.005906 -1.005906
vt 1.005906 1.005906
vt 1.377953 -0.01446771
vt -1.377953 -0.01446771
vt 1.005906 35.42056
vt -1.005906 35.42056
vt -1.377953 -0.01446771
vt 1.377953 -0.01446771
vt 1.377953 -0.01446771
vt -1.377953 -0.01446771
vt 1.377953 -0.01446771
vt -1.377953 -0.01446771

usemtl woodDark

f 51/95/49 50/94/49 49/93/49
f 50/94/49 51/95/49 52/96/49
f 49/99/50 54/98/50 53/97/50
f 54/98/50 49/99/50 50/100/50
f 56/102/51 51/100/51 55/101/51
f 51/100/51 56/102/51 52/99/51
f 51/99/52 53/104/52 55/103/52
f 53/104/52 51/99/52 49/100/52
f 50/99/53 56/106/53 54/105/53
f 56/106/53 50/99/53 52/100/53
f 54/49/54 55/50/54 53/51/54
f 55/49/54 54/50/54 56/51/54
